<svg width="221" height="190" viewBox="0 0 221 190" fill="none" xmlns="http://www.w3.org/2000/svg">
<rect x="52.6706" y="139.76" width="87.2843" height="173.838" rx="23" transform="rotate(-110 52.6706 139.76)" fill="url(#paint0_linear_17_172)" stroke="white" stroke-width="8"/>
<mask id="path-2-outside-1_17_172" maskUnits="userSpaceOnUse" x="0" y="47" width="221" height="143" fill="black">
<rect fill="white" y="47" width="221" height="143"/>
<path fill-rule="evenodd" clip-rule="evenodd" d="M33 163C33 173.493 41.5066 182 52 182H194C204.493 182 213 173.493 213 163V74C213 63.5066 204.493 55 194 55H52C41.5066 55 33 63.5066 33 74V83.1338C18.4351 88.2818 8 102.172 8 118.5C8 134.828 18.4351 148.718 33 153.866V163ZM33 96.7484V140.252C25.4796 135.921 20.4167 127.802 20.4167 118.5C20.4167 109.198 25.4796 101.079 33 96.7484Z"/>
</mask>
<path fill-rule="evenodd" clip-rule="evenodd" d="M33 163C33 173.493 41.5066 182 52 182H194C204.493 182 213 173.493 213 163V74C213 63.5066 204.493 55 194 55H52C41.5066 55 33 63.5066 33 74V83.1338C18.4351 88.2818 8 102.172 8 118.5C8 134.828 18.4351 148.718 33 153.866V163ZM33 96.7484V140.252C25.4796 135.921 20.4167 127.802 20.4167 118.5C20.4167 109.198 25.4796 101.079 33 96.7484Z" fill="url(#paint1_linear_17_172)"/>
<path d="M33 83.1338L35.666 90.6765L41 88.7912V83.1338H33ZM33 153.866H41V148.209L35.666 146.323L33 153.866ZM33 140.252L29.0075 147.184L41 154.091V140.252H33ZM33 96.7484H41V82.9093L29.0075 89.8159L33 96.7484ZM52 174C45.9249 174 41 169.075 41 163H25C25 177.912 37.0883 190 52 190V174ZM194 174H52V190H194V174ZM205 163C205 169.075 200.075 174 194 174V190C208.912 190 221 177.912 221 163H205ZM205 74V163H221V74H205ZM194 63C200.075 63 205 67.9249 205 74H221C221 59.0883 208.912 47 194 47V63ZM52 63H194V47H52V63ZM41 74C41 67.9249 45.9249 63 52 63V47C37.0883 47 25 59.0883 25 74H41ZM41 83.1338V74H25V83.1338H41ZM16 118.5C16 105.668 24.1975 94.7301 35.666 90.6765L30.334 75.5911C12.6727 81.8335 0 98.6765 0 118.5H16ZM35.666 146.323C24.1975 142.27 16 131.332 16 118.5H0C0 138.323 12.6727 155.167 30.334 161.409L35.666 146.323ZM41 163V153.866H25V163H41ZM41 140.252V96.7484H25V140.252H41ZM12.4167 118.5C12.4167 130.778 19.1095 141.484 29.0075 147.184L36.9925 133.319C31.8498 130.357 28.4167 124.825 28.4167 118.5H12.4167ZM29.0075 89.8159C19.1095 95.5163 12.4167 106.222 12.4167 118.5H28.4167C28.4167 112.175 31.8498 106.643 36.9925 103.681L29.0075 89.8159Z" fill="white" mask="url(#path-2-outside-1_17_172)"/>
<circle cx="81" cy="107" r="12" fill="white"/>
<circle cx="166" cy="107" r="12" fill="white"/>
<path d="M94 137.532C94 134.326 97.1499 132.068 100.187 133.097L120.932 140.129C122.597 140.694 124.403 140.694 126.068 140.129L146.813 133.097C149.85 132.068 153 134.326 153 137.532V137.532C153 139.593 151.654 141.411 149.683 142.012L125.834 149.288C124.313 149.752 122.687 149.752 121.166 149.288L97.3166 142.012C95.3462 141.411 94 139.593 94 137.532V137.532Z" fill="white"/>
<defs>
<linearGradient id="paint0_linear_17_172" x1="94.7034" y1="134.633" x2="94.7034" y2="300.472" gradientUnits="userSpaceOnUse">
<stop offset="0.15" stop-color="#5B7FFF"/>
<stop offset="1" stop-color="#F57EFF"/>
</linearGradient>
<linearGradient id="paint1_linear_17_172" x1="33" y1="118.5" x2="213" y2="118.5" gradientUnits="userSpaceOnUse">
<stop offset="0.15" stop-color="#5B7FFF"/>
<stop offset="1" stop-color="#F57EFF"/>
</linearGradient>
</defs>
</svg>
